<?xml version="1.0" encoding="UTF-8" standalone="no"?>
<!-- Created with Inkscape (http://www.inkscape.org/) -->

<svg
   width="512"
   height="512"
   viewBox="0 0 512 512"
   version="1.1"
   id="svg1"
   inkscape:version="1.3.2 (091e20ef0f, 2023-11-25, custom)"
   sodipodi:docname="icon.svg"
   xml:space="preserve"
   xmlns:inkscape="http://www.inkscape.org/namespaces/inkscape"
   xmlns:sodipodi="http://sodipodi.sourceforge.net/DTD/sodipodi-0.dtd"
   xmlns="http://www.w3.org/2000/svg"
   xmlns:svg="http://www.w3.org/2000/svg"><sodipodi:namedview
     id="namedview1"
     pagecolor="#838383"
     bordercolor="#000000"
     borderopacity="0.25"
     inkscape:showpageshadow="2"
     inkscape:pageopacity="0.0"
     inkscape:pagecheckerboard="0"
     inkscape:deskcolor="#d1d1d1"
     inkscape:document-units="px"
     inkscape:zoom="1.2042912"
     inkscape:cx="244.95737"
     inkscape:cy="206.34544"
     inkscape:window-width="1914"
     inkscape:window-height="1011"
     inkscape:window-x="0"
     inkscape:window-y="0"
     inkscape:window-maximized="1"
     inkscape:current-layer="layer1" /><defs
     id="defs1" /><g
     inkscape:label="Layer 1"
     inkscape:groupmode="layer"
     id="layer1"><g
       id="g19"
       transform="matrix(1.0170554,0,0,1.0170554,-4.3662078,-4.3663161)"><path
         id="path16"
         style="color:#000000;fill:#ffffff;stroke:#ffffff;stroke-width:73.1427;stroke-linecap:round;stroke-linejoin:round;stroke-dasharray:none"
         d="m 384.76587,74.640343 c -5.37818,-0.03354 -10.62728,1.635745 -14.99819,4.769632 -3.15336,2.260718 -5.23075,5.054227 -6.78033,7.53034 -1.46961,2.349398 -2.96784,5.267795 -4.51071,8.248195 l -13.94818,26.95887 -54.45702,36.16241 c -6.55334,4.35187 -12.33811,8.00795 -16.43924,13.23926 -3.36178,4.28813 -5.76577,9.24497 -7.05356,14.53925 -1.57115,6.45912 -0.86401,13.26456 -0.22678,21.10531 l 2.96785,36.51598 c -14.4543,-16.84436 -32.47647,-29.59105 -50.45345,-40.23383 -23.33792,-13.81655 -46.85264,-24.33598 -62.91058,-34.78921 -8.02896,-5.2266 -14.06857,-10.41281 -17.48567,-15.25175 -0.44191,-0.62579 -0.74306,-1.2176 -1.11071,-1.82321 l 15.66782,-15.66782 -12.51069,-12.51068 c 3.00711,-4.14425 6.97667,-7.04237 11.85176,-9.3607 9.37077,-4.45621 22.51669,-5.82703 35.84992,-5.08034 12.12691,0.67914 24.06216,2.98194 33.61242,5.28749 l 10.03034,10.03033 h -68.08199 v 47.18561 h 80.07303 V 126.55451 L 267.309,103.09742 240.78227,76.570696 222.3466,95.006367 c -9.65552,-2.16316 -21.15487,-4.15198 -33.07671,-4.819631 -3.78541,-0.211994 -7.62142,-0.299675 -11.46426,-0.210714 -11.5285,0.266883 -23.1112,2.135309 -33.52492,7.087483 -6.38101,3.034455 -12.16314,7.512805 -16.89103,13.242825 l -0.88928,-0.88928 -28.330298,28.33029 22.344588,22.34459 c 0.78529,1.44988 1.62331,2.86704 2.56964,4.20713 5.61839,7.95619 13.52325,14.26508 22.59638,20.17138 18.14625,11.81265 41.46798,22.11515 63.59092,35.21242 22.12296,13.0973 42.76783,28.76932 55.90345,50.10525 2.84204,4.61628 5.33838,9.52822 7.46426,14.75354 l 4.46963,54.99629 -20.21781,20.21781 11.65176,11.65176 c -14.54897,23.19907 -31.27833,35.78932 -48.69096,42.05348 -21.18471,7.62113 -44.14028,5.88435 -65.78199,-0.30179 -24.38551,-6.97044 -46.23871,-19.38064 -60.912357,-28.98207 l 6.274986,-6.27499 -26.526725,-26.52672 -28.330291,28.33028 26.526724,26.52674 8.405338,-8.40534 c 15.621359,10.55036 40.587955,25.20938 69.385555,33.44099 24.12263,6.8953 51.24732,9.2994 77.33553,-0.0857 20.47025,-7.36411 39.80315,-22.10341 55.91774,-46.17133 l 1.27142,1.27143 28.33029,-28.33029 -2.50178,-2.50178 113.59974,-67.2802 c 6.7691,-4.00867 12.73303,-7.36348 17.09817,-12.37676 3.57862,-4.10844 6.23592,-8.9366 7.79462,-14.15711 1.90163,-6.36911 1.5455,-13.20308 1.3125,-21.06602 l -1.93392,-65.3445 13.94639,-26.9535 c 1.54284,-2.98053 3.06085,-5.89105 4.13035,-8.4482 1.12605,-2.69445 2.20651,-6.0033 2.23035,-9.88212 0.0335,-5.37791 -1.63772,-10.62928 -4.77142,-14.99996 -2.2599,-3.15256 -5.05299,-5.22948 -7.52855,-6.77856 -2.35004,-1.46954 -5.26896,-2.96883 -8.24998,-4.5107 L 403.09618,80.999257 c -2.98102,-1.541869 -5.89149,-3.059592 -8.4482,-4.128562 -2.69516,-1.126219 -6.00215,-2.206334 -9.88211,-2.230352 z m -0.0946,25.671367 c 0.0866,0.0341 0.0457,0.012 0.15356,0.0571 1.37456,0.57437 3.21402,1.51481 6.56785,3.24999 l 43.77847,22.65173 c 3.3538,1.73506 5.18546,2.69387 6.44819,3.48392 0.0981,0.0614 0.0567,0.0405 0.13394,0.0911 -0.0343,0.0872 -0.0117,0.0466 -0.0571,0.15536 -0.57449,1.37419 -1.51449,3.21418 -3.24999,6.56784 l -9.61248,18.57674 -57.35165,-29.67493 9.61248,-18.57674 c 1.73552,-3.35354 2.69541,-5.18537 3.48571,-6.4482 0.0613,-0.098 0.0406,-0.0567 0.0911,-0.13393 z m -29.54815,45.36776 66.66056,34.49455 1.81071,61.15165 c 0.2848,9.61828 0.18873,11.52682 -0.25893,13.02676 -0.51944,1.74056 -1.40531,3.34882 -2.59821,4.71963 -1.02794,1.17939 -2.58744,2.28221 -10.86783,7.1857 l -87.29623,51.70166 19.99103,-38.63562 c 3.85934,0.25508 7.827,-0.16234 11.73568,-1.40535 16.7545,-5.32819 26.01743,-23.23113 20.68924,-39.98563 -5.32817,-16.75448 -23.23113,-26.01742 -39.98561,-20.68923 -16.75463,5.32821 -26.01742,23.22935 -20.68925,39.98383 1.24305,3.90873 3.19287,7.38972 5.63035,10.39283 l -19.98924,38.63384 -8.21962,-101.12298 c -0.77966,-9.59197 -0.78239,-11.50267 -0.4125,-13.02318 0.42917,-1.76478 1.23121,-3.41711 2.35178,-4.84642 0.96552,-1.23157 2.46702,-2.41378 10.4839,-7.73748 z m -9.88748,95.55871 c 2.47054,0.22837 4.68452,1.89876 5.48392,4.41248 1.06549,3.35041 -0.78659,6.93078 -4.13749,7.99641 -1.67466,0.53256 -3.40858,0.33549 -4.85535,-0.4125 l -0.002,-0.002 -0.002,-0.002 c -1.44514,-0.74923 -2.60708,-2.04791 -3.13928,-3.72142 -1.06587,-3.35163 0.78838,-6.93077 4.13928,-7.99641 0.83771,-0.26641 1.68898,-0.35113 2.51249,-0.27499 z" /><g
         id="g8"
         transform="matrix(0.9142836,0,0,0.9142836,29.312211,33.897754)"
         sodipodi:insensitive="true"><path
           style="fill:none;stroke:#000000;stroke-width:20.6;stroke-linecap:round;stroke-linejoin:round;stroke-dasharray:none"
           d="m 235.28307,84.275448 c 0,0 -119.03801,-42.72095 -130.11878,28.767572 C 94.083516,184.53154 316.08722,177.50746 280.9452,355.56443 205.40497,512 42.955126,376.55058 42.955126,376.55058"
           id="path2"
           sodipodi:nodetypes="czcc" /><path
           id="path3"
           style="fill:#808080;stroke:#4d4d4d;stroke-width:2.82648;stroke-linecap:round"
           transform="rotate(45)"
           d="m 280.66574,213.23492 h 38.20527 v 40.99458 h -38.20527 z" /><path
           id="path4"
           style="fill:#808080;stroke:#4d4d4d;stroke-width:2.82648;stroke-linecap:round"
           d="m 279.9005,327.42075 27.01521,27.0152 -28.98755,28.98755 -27.01521,-27.01521 z" /><path
           id="path5"
           style="fill:#808080;stroke:#4d4d4d;stroke-width:2.82648;stroke-linecap:round"
           d="m 106.2993,84.59769 27.01521,27.0152 -28.98755,28.98755 -27.01521,-27.01521 z" /><path
           id="path6"
           style="fill:#808080;stroke:#4d4d4d;stroke-width:2.82648;stroke-linecap:round"
           d="m 231.29502,48.671476 27.01521,27.0152 -28.98755,28.987554 -27.01521,-27.015214 z" /><g
           style="fill:none"
           id="g7"
           transform="matrix(13.272473,-4.2208443,4.2208443,13.272473,157.61292,81.363257)"><path
             d="M 14.8686,4.13134 14.1615,3.42423 v 0 z M 7.81459,7.48152 8.08931,8.44304 Z m -2.23895,2.35732 0.9744,0.22486 v 0 z M 3,21 2.02561,20.7751 c -0.07753,0.336 0.02348,0.6882 0.26728,0.932 0.24381,0.2438 0.59601,0.3448 0.93197,0.2673 z m 11.1611,-2.5757 -0.2248,-0.9744 v 0 z m 2.3574,-2.2389 -0.9616,-0.2747 z m 3.3501,-7.05406 0.7071,0.70711 v 0 z m 0,-2.26274 -0.7071,0.70711 v 0 z M 17.1314,4.13134 17.8385,3.42423 v 0 z m 3.4054,4.17765 -0.951,-0.30902 z m 0,-0.61804 -0.951,0.30902 z m -5.0964,10.33415 0.5197,0.8543 v 0 z m 0.6135,-0.5827 0.8265,0.563 v 0 z m -9.49634,-9.49633 0.563,0.82646 v 0 z m -0.58269,0.6135 0.85435,0.51971 v 0 z M 15.691,3.46313 15.382,2.51207 Z m 0.618,0 0.309,-0.95106 v 0 z M 9.14645,16.2676 c 0.39052,-0.3905 0.39052,-1.0237 -10e-6,-1.4142 -0.39053,-0.3905 -1.02369,-0.3905 -1.41421,0 z M 10,14.5 C 10,14.7761 9.77614,15 9.5,15 v 2 C 10.8807,17 12,15.8807 12,14.5 Z M 9.5,15 C 9.22386,15 9,14.7761 9,14.5 H 7 C 7,15.8807 8.11929,17 9.5,17 Z M 9,14.5 C 9,14.2238 9.22386,14 9.5,14 V 12 C 8.11929,12 7,13.1193 7,14.5 Z M 9.5,14 c 0.27614,0 0.5,0.2238 0.5,0.5 h 2 C 12,13.1193 10.8807,12 9.5,12 Z M 14.1615,3.42423 12.2929,5.29286 13.7071,6.70708 15.5757,4.83845 Z M 12.7253,5.03845 7.53987,6.51999 8.08931,8.44304 13.2747,6.96149 Z M 4.60125,9.61398 2.02561,20.7751 3.97439,21.2248 6.55004,10.0637 Z M 3.22486,21.9744 14.386,19.3987 13.9363,17.4499 2.77514,20.0256 Z M 17.48,16.4601 l 1.4815,-5.1854 -1.923,-0.5495 -1.4816,5.1855 z m 1.2271,-4.753 1.8686,-1.86865 -1.4142,-1.41421 -1.8686,1.86866 z m 1.8686,-5.54561 -2.7372,-2.73726 -1.4142,1.41422 2.7372,2.73726 z m 0,3.67696 C 20.7621,9.65211 20.9449,9.47038 21.0858,9.30446 21.2342,9.12961 21.3938,8.90772 21.4879,8.618 L 19.5858,7.99997 C 19.6057,7.93858 19.6292,7.92986 19.5611,8.01011 19.4854,8.09928 19.3712,8.21456 19.1615,8.42424 Z M 19.1615,7.57571 c 0.2097,0.20967 0.3239,0.32495 0.3996,0.41413 0.0681,0.08024 0.0446,0.07152 0.0247,0.01013 L 21.4879,7.38194 C 21.3938,7.09222 21.2342,6.87033 21.0858,6.69548 20.9449,6.52957 20.7621,6.34783 20.5757,6.16149 Z M 21.4879,8.618 c 0.1305,-0.40168 0.1305,-0.83438 0,-1.23606 l -1.9021,0.61803 v 0 z M 14.386,19.3987 c 0.602,-0.1389 1.1281,-0.248 1.5741,-0.5193 l -1.0394,-1.7086 c -0.105,0.0638 -0.248,0.1092 -0.9844,0.2791 z m 1.1709,-3.488 c -0.2076,0.7266 -0.2603,0.8671 -0.3295,0.9687 l 1.653,1.126 c 0.2939,-0.4314 0.4299,-0.9513 0.5996,-1.5453 z m 0.4032,2.9687 c 0.3656,-0.2223 0.6794,-0.5204 0.9203,-0.874 l -1.653,-1.126 c -0.0803,0.1179 -0.1848,0.2172 -0.3067,0.2914 z M 7.53987,6.51999 C 6.94585,6.68971 6.426,6.82571 5.99457,7.11961 L 7.12056,8.77253 C 7.22213,8.70334 7.36263,8.65066 8.08931,8.44304 Z M 6.55004,10.0637 C 6.71998,9.32729 6.76535,9.18427 6.82922,9.07928 L 5.12053,8.03986 C 4.84922,8.48586 4.74017,9.01202 4.60125,9.61398 Z M 5.99457,7.11961 C 5.64092,7.36052 5.34291,7.67429 5.12053,8.03986 L 6.82922,9.07928 C 6.90334,8.95742 7.00268,8.85283 7.12056,8.77253 Z M 15.5757,4.83845 C 15.7854,4.62878 15.9007,4.51459 15.9899,4.43889 16.0701,4.37076 16.0614,4.39424 16,4.41418 L 15.382,2.51207 C 15.0922,2.60621 14.8704,2.76578 14.6955,2.91421 14.5296,3.05506 14.3479,3.2379 14.1615,3.42423 Z M 17.8385,3.42423 C 17.6521,3.23789 17.4704,3.05506 17.3045,2.91421 17.1296,2.76578 16.9078,2.60621 16.618,2.51207 L 16,4.41418 c -0.0614,-0.01994 -0.0701,-0.04341 0.0101,0.02471 0.0892,0.0757 0.2045,0.18988 0.4142,0.39956 z M 16,4.41418 v 0 l 0.618,-1.90211 c -0.4017,-0.13051 -0.8343,-0.13051 -1.236,0 z m -3.7071,2.2929 5,5.00002 1.4142,-1.4142 -5,-5.00004 z m -4.56067,8.14632 -5.43934,5.4395 1.41422,1.4142 5.43934,-5.4395 z"
             fill="#000000"
             id="path7"
             style="stroke:none" /></g></g></g></g></svg>
