<?xml version="1.0" encoding="UTF-8" standalone="no"?>
<!-- Created with Inkscape (http://www.inkscape.org/) -->

<svg
   width="512"
   height="512"
   viewBox="0 0 512 512"
   version="1.1"
   id="svg1"
   xml:space="preserve"
   xmlns="http://www.w3.org/2000/svg"
   xmlns:svg="http://www.w3.org/2000/svg"><defs
     id="defs1" /><g
     id="layer1"><path
       id="path32"
       style="fill:#ffffff;stroke:#ffffff;stroke-linecap:round"
       d="m 396.95312,38.9375 c -9.82673,-0.06086 -19.42967,2.992637 -27.41601,8.71875 -6.2168,4.45696 -10.04448,9.795911 -12.37109,13.513672 a 18.701871,18.701871 0 0 0 -0.002,0.0039 c -2.26939,3.627978 -4.019,7.116773 -5.6875,10.339844 a 18.701871,18.701871 0 0 0 -0.002,0.0039 l -13.02734,25.183594 -55.52539,36.8711 a 18.701871,18.701871 0 0 0 -0.002,0 c -6.96382,4.62444 -15.20825,9.40963 -22.35156,18.52148 -5.32336,6.79022 -9.12981,14.64035 -11.16797,23.01953 -2.08565,8.57425 -1.70729,15.8576 -1.1543,22.64063 -7.75583,-5.54029 -15.58984,-10.71021 -23.33398,-15.29493 -26.68373,-15.79734 -52.75939,-27.62196 -68.13477,-37.63086 -1.65256,-1.07576 -2.65826,-2.00498 -4.05664,-3.04296 l 3.875,-3.875 a 18.701871,18.701871 0 0 0 2.81446,-22.69727 c 5.98513,-1.13421 13.48169,-1.77789 21.4082,-1.33398 9.82639,0.5503 19.72894,2.34353 28.54102,4.29101 l 14.80078,14.80078 a 18.701871,18.701871 0 0 0 26.44531,0 l 30.98633,-30.98632 a 18.701871,18.701871 0 0 0 0,-26.44532 L 252.57812,46.525391 a 18.701871,18.701871 0 0 0 -26.44531,0 l -13.18164,13.18164 c -8.94005,-1.672285 -18.50143,-3.154398 -28.89258,-3.736328 -4.55706,-0.255208 -9.2424,-0.366404 -14.01757,-0.255859 -14.33844,0.331931 -29.66644,2.616049 -44.26563,9.558594 -7.62583,3.626416 -14.58133,8.685036 -20.61914,14.857421 a 18.701871,18.701871 0 0 0 -4.01953,2.320313 L 70.150391,113.4375 a 18.701871,18.701871 0 0 0 0,26.44531 l 22.958984,22.95899 c 0.720783,1.20968 1.328253,2.35779 2.238281,3.64648 8.225664,11.64836 18.924644,19.87487 29.789064,26.94727 21.82062,14.20453 47.28788,25.35338 70.22656,38.93359 22.95834,13.59186 42.8236,29.14695 54.74805,48.51563 2.13654,3.47033 4.0067,7.18005 5.71094,11.06054 l 3.92578,48.31641 -15.9961,15.99805 a 18.701871,18.701871 0 0 0 0,26.44531 l 1.58789,1.58789 c -11.41504,14.33735 -23.11328,21.98329 -35.20703,26.33398 -18.27046,6.57275 -39.28031,5.34508 -60.48047,-0.71484 -16.83837,-4.81315 -32.87022,-12.53414 -46.24414,-20.13281 A 18.701871,18.701871 0 0 0 97.976562,376.10742 L 68.964844,347.09375 a 18.701871,18.701871 0 0 0 -26.445313,0 L 11.53125,378.08008 a 18.701871,18.701871 0 0 0 0,26.44531 l 29.013672,29.01367 a 18.701871,18.701871 0 0 0 24.53125,1.10547 c 17.696564,10.89311 41.231468,23.20153 68.636718,31.03516 28.84146,8.24414 62.6786,11.52837 96.05469,-0.47852 24.3556,-8.76185 47.10345,-25.84804 65.82422,-51.39258 a 18.701871,18.701871 0 0 0 3.61914,-2.08984 l 30.98633,-30.98633 a 18.701871,18.701871 0 0 0 4.05664,-6.08008 l 113.76367,-67.37695 c 7.19603,-4.26149 15.67483,-8.61855 23.27539,-17.34766 5.6672,-6.50716 9.87281,-14.15135 12.33984,-22.41406 3.31185,-11.09235 2.45669,-20.58695 2.20899,-28.94336 v -0.002 l -1.97071,-66.625 13.02539,-25.17578 0.002,-0.002 c 1.66987,-3.22588 3.5093,-6.67196 5.16015,-10.61914 a 18.701871,18.701871 0 0 0 0.002,-0.004 c 1.69069,-4.04556 3.83737,-10.25377 3.88476,-17.90235 0.0612,-9.83071 -2.99371,-19.432064 -8.71875,-27.417964 l -0.002,-0.002 c -4.45634,-6.215637 -9.79482,-10.043285 -13.51172,-12.36914 a 18.701871,18.701871 0 0 0 -0.006,-0.0039 c -3.6236,-2.265928 -7.11451,-4.015317 -10.34375,-5.685547 l -0.002,-0.002 -47.88086,-24.775391 a 18.701871,18.701871 0 0 0 -0.002,-0.002 c -3.22434,-1.667719 -6.67076,-3.507366 -10.61914,-5.158203 a 18.701871,18.701871 0 0 0 -0.004,-0.002 c -4.04363,-1.689448 -10.2528,-3.83668 -17.90009,-3.884395 z M 365.5957,157 l 53.36524,27.61523 1.65429,55.88672 c 0.12246,4.13569 0.11333,5.65525 0.12305,6.99414 -1.13582,0.70713 -2.41337,1.52508 -5.97266,3.63282 l -9.27734,5.49414 c 1.62005,-8.43939 1.2401,-17.36279 -1.52344,-26.05274 -8.89075,-27.95705 -39.26616,-43.67184 -67.22265,-34.78125 -8.68977,2.76348 -16.19134,7.60566 -22.14453,13.80274 l -0.87305,-10.7461 c -0.33516,-4.12346 -0.40576,-5.63932 -0.48438,-6.97656 1.09733,-0.76443 2.33201,-1.64829 5.7793,-3.9375 z" /><g
       id="g6"
       transform="translate(8.0595543,13.074409)"><path
         style="fill:none;stroke:#000000;stroke-width:20.6;stroke-linecap:round;stroke-linejoin:round;stroke-dasharray:none"
         d="m 235.28307,84.275448 c 0,0 -119.03801,-42.72095 -130.11878,28.767572 C 94.083516,184.53154 316.08722,177.50746 280.9452,355.56443 205.40497,512 42.955126,376.55058 42.955126,376.55058"
         id="path1" /><path
         id="rect3"
         style="fill:#808080;stroke:#4d4d4d;stroke-width:2.82648;stroke-linecap:round"
         transform="rotate(45)"
         d="m 280.66574,213.23492 h 38.20527 v 40.99458 h -38.20527 z" /><path
         id="use4"
         style="fill:#808080;stroke:#4d4d4d;stroke-width:2.82648;stroke-linecap:round"
         d="m 279.9005,327.42075 27.01521,27.0152 -28.98755,28.98755 -27.01521,-27.01521 z" /><path
         id="use5"
         style="fill:#808080;stroke:#4d4d4d;stroke-width:2.82648;stroke-linecap:round"
         d="m 106.2993,84.59769 27.01521,27.0152 -28.98755,28.98755 -27.01521,-27.01521 z" /><path
         id="use6"
         style="fill:#808080;stroke:#4d4d4d;stroke-width:2.82648;stroke-linecap:round"
         d="m 231.29502,48.671476 27.01521,27.0152 -28.98755,28.987554 -27.01521,-27.015214 z" /><g
         style="fill:none"
         id="g4"
         transform="matrix(13.272473,-4.2208443,4.2208443,13.272473,157.61292,81.363257)"><path
           d="M 14.8686,4.13134 14.1615,3.42423 v 0 z M 7.81459,7.48152 8.08931,8.44304 Z m -2.23895,2.35732 0.9744,0.22486 v 0 z M 3,21 2.02561,20.7751 c -0.07753,0.336 0.02348,0.6882 0.26728,0.932 0.24381,0.2438 0.59601,0.3448 0.93197,0.2673 z m 11.1611,-2.5757 -0.2248,-0.9744 v 0 z m 2.3574,-2.2389 -0.9616,-0.2747 z m 3.3501,-7.05406 0.7071,0.70711 v 0 z m 0,-2.26274 -0.7071,0.70711 v 0 z M 17.1314,4.13134 17.8385,3.42423 v 0 z m 3.4054,4.17765 -0.951,-0.30902 z m 0,-0.61804 -0.951,0.30902 z m -5.0964,10.33415 0.5197,0.8543 v 0 z m 0.6135,-0.5827 0.8265,0.563 v 0 z m -9.49634,-9.49633 0.563,0.82646 v 0 z m -0.58269,0.6135 0.85435,0.51971 v 0 z M 15.691,3.46313 15.382,2.51207 Z m 0.618,0 0.309,-0.95106 v 0 z M 9.14645,16.2676 c 0.39052,-0.3905 0.39052,-1.0237 -10e-6,-1.4142 -0.39053,-0.3905 -1.02369,-0.3905 -1.41421,0 z M 10,14.5 C 10,14.7761 9.77614,15 9.5,15 v 2 C 10.8807,17 12,15.8807 12,14.5 Z M 9.5,15 C 9.22386,15 9,14.7761 9,14.5 H 7 C 7,15.8807 8.11929,17 9.5,17 Z M 9,14.5 C 9,14.2238 9.22386,14 9.5,14 V 12 C 8.11929,12 7,13.1193 7,14.5 Z M 9.5,14 c 0.27614,0 0.5,0.2238 0.5,0.5 h 2 C 12,13.1193 10.8807,12 9.5,12 Z M 14.1615,3.42423 12.2929,5.29286 13.7071,6.70708 15.5757,4.83845 Z M 12.7253,5.03845 7.53987,6.51999 8.08931,8.44304 13.2747,6.96149 Z M 4.60125,9.61398 2.02561,20.7751 3.97439,21.2248 6.55004,10.0637 Z M 3.22486,21.9744 14.386,19.3987 13.9363,17.4499 2.77514,20.0256 Z M 17.48,16.4601 l 1.4815,-5.1854 -1.923,-0.5495 -1.4816,5.1855 z m 1.2271,-4.753 1.8686,-1.86865 -1.4142,-1.41421 -1.8686,1.86866 z m 1.8686,-5.54561 -2.7372,-2.73726 -1.4142,1.41422 2.7372,2.73726 z m 0,3.67696 C 20.7621,9.65211 20.9449,9.47038 21.0858,9.30446 21.2342,9.12961 21.3938,8.90772 21.4879,8.618 L 19.5858,7.99997 C 19.6057,7.93858 19.6292,7.92986 19.5611,8.01011 19.4854,8.09928 19.3712,8.21456 19.1615,8.42424 Z M 19.1615,7.57571 c 0.2097,0.20967 0.3239,0.32495 0.3996,0.41413 0.0681,0.08024 0.0446,0.07152 0.0247,0.01013 L 21.4879,7.38194 C 21.3938,7.09222 21.2342,6.87033 21.0858,6.69548 20.9449,6.52957 20.7621,6.34783 20.5757,6.16149 Z M 21.4879,8.618 c 0.1305,-0.40168 0.1305,-0.83438 0,-1.23606 l -1.9021,0.61803 v 0 z M 14.386,19.3987 c 0.602,-0.1389 1.1281,-0.248 1.5741,-0.5193 l -1.0394,-1.7086 c -0.105,0.0638 -0.248,0.1092 -0.9844,0.2791 z m 1.1709,-3.488 c -0.2076,0.7266 -0.2603,0.8671 -0.3295,0.9687 l 1.653,1.126 c 0.2939,-0.4314 0.4299,-0.9513 0.5996,-1.5453 z m 0.4032,2.9687 c 0.3656,-0.2223 0.6794,-0.5204 0.9203,-0.874 l -1.653,-1.126 c -0.0803,0.1179 -0.1848,0.2172 -0.3067,0.2914 z M 7.53987,6.51999 C 6.94585,6.68971 6.426,6.82571 5.99457,7.11961 L 7.12056,8.77253 C 7.22213,8.70334 7.36263,8.65066 8.08931,8.44304 Z M 6.55004,10.0637 C 6.71998,9.32729 6.76535,9.18427 6.82922,9.07928 L 5.12053,8.03986 C 4.84922,8.48586 4.74017,9.01202 4.60125,9.61398 Z M 5.99457,7.11961 C 5.64092,7.36052 5.34291,7.67429 5.12053,8.03986 L 6.82922,9.07928 C 6.90334,8.95742 7.00268,8.85283 7.12056,8.77253 Z M 15.5757,4.83845 C 15.7854,4.62878 15.9007,4.51459 15.9899,4.43889 16.0701,4.37076 16.0614,4.39424 16,4.41418 L 15.382,2.51207 C 15.0922,2.60621 14.8704,2.76578 14.6955,2.91421 14.5296,3.05506 14.3479,3.2379 14.1615,3.42423 Z M 17.8385,3.42423 C 17.6521,3.23789 17.4704,3.05506 17.3045,2.91421 17.1296,2.76578 16.9078,2.60621 16.618,2.51207 L 16,4.41418 c -0.0614,-0.01994 -0.0701,-0.04341 0.0101,0.02471 0.0892,0.0757 0.2045,0.18988 0.4142,0.39956 z M 16,4.41418 v 0 l 0.618,-1.90211 c -0.4017,-0.13051 -0.8343,-0.13051 -1.236,0 z m -3.7071,2.2929 5,5.00002 1.4142,-1.4142 -5,-5.00004 z m -4.56067,8.14632 -5.43934,5.4395 1.41422,1.4142 5.43934,-5.4395 z"
           fill="#000000"
           id="path1-0"
           style="stroke:none" /></g></g></g></svg>
